<svg width="1440" height="1440" viewBox="0 0 1440 1440" fill="none" xmlns="http://www.w3.org/2000/svg">
<g clip-path="url(#clip0_522_3)">
<rect width="1440" height="1440" fill="#E8E8E8"/>
<g style="mix-blend-mode:hard-light">
<g style="mix-blend-mode:hard-light">
<path d="M182.5 470L438.411 913.25H-73.4105L182.5 470Z" fill="#0030FA" fill-opacity="0.06"/>
</g>
<g style="mix-blend-mode:hard-light">
<path d="M519 301L872.338 913H165.662L519 301Z" fill="#0030FA" fill-opacity="0.06"/>
</g>
</g>
<g style="mix-blend-mode:hard-light">
<g style="mix-blend-mode:hard-light">
<path d="M1128.5 470L1384.41 913.25H872.589L1128.5 470Z" fill="#0030FA" fill-opacity="0.06"/>
</g>
<g style="mix-blend-mode:hard-light">
<path d="M1465 301L1818.34 913H1111.66L1465 301Z" fill="#0030FA" fill-opacity="0.06"/>
</g>
</g>
<rect x="-89" y="913" width="1646" height="695" fill="#0030FA" fill-opacity="0.06"/>
<path d="M193.5 1076.66C154.463 1066.35 50.5 1070.67 0 1053.92V1464.86C10.527 1461.64 42.8096 1455.33 87.7246 1455.86C132.64 1456.38 166.677 1462.08 178.081 1464.86C191.386 1468.68 227.821 1476.26 267.122 1475.99C316.247 1475.67 433.36 1469.28 455.73 1462.57C478.099 1455.86 555.736 1451.27 592.58 1455.86C629.424 1460.44 677.673 1462.57 770.661 1462.57C863.649 1462.57 879.44 1445.55 964.532 1448.33C1049.63 1451.11 1025.5 1458.97 1081.21 1462.57C1136.91 1466.17 1197.88 1471.9 1264.99 1462.57C1318.68 1455.11 1404.03 1449.96 1440 1448.33V1070.67C1392.5 1047.74 1274 1053.92 1228 1053.92C1049.04 1053.92 1115.5 1075.58 1015 1082.44C954.441 1086.58 833.823 1058.83 770.661 1053.92C707.499 1049.01 615.58 1075.57 592.58 1064.74C526.866 1033.82 455.73 1064.74 341 1064.74C286.843 1064.74 232.099 1082.55 193.5 1076.66Z" fill="#0030FA" fill-opacity="0.06"/>
</g>
<defs>
<clipPath id="clip0_522_3">
<rect width="1440" height="1440" fill="white"/>
</clipPath>
</defs>
</svg>
